<svg width="120" height="46" viewBox="0 0 120 46" fill="none" xmlns="http://www.w3.org/2000/svg">
<path d="M29.0728 21.24C28.0461 21.24 27.1528 21.0533 26.3928 20.68C25.6328 20.3067 25.0461 19.7867 24.6328 19.12C24.2195 18.4533 24.0128 17.68 24.0128 16.8H25.7728C25.7728 17.3467 25.8995 17.8533 26.1528 18.32C26.4061 18.7733 26.7728 19.14 27.2528 19.42C27.7461 19.6867 28.3528 19.82 29.0728 19.82C30.0195 19.82 30.7528 19.5933 31.2728 19.14C31.7928 18.6867 32.0528 18.12 32.0528 17.44C32.0528 16.88 31.9328 16.4333 31.6928 16.1C31.4528 15.7533 31.1261 15.4733 30.7128 15.26C30.3128 15.0467 29.8461 14.86 29.3128 14.7C28.7928 14.54 28.2461 14.36 27.6728 14.16C26.5928 13.7867 25.7928 13.3267 25.2728 12.78C24.7528 12.22 24.4928 11.4933 24.4928 10.6C24.4795 9.85333 24.6528 9.19333 25.0128 8.62C25.3728 8.03333 25.8795 7.58 26.5328 7.26C27.1995 6.92667 27.9861 6.76 28.8928 6.76C29.7861 6.76 30.5595 6.92667 31.2128 7.26C31.8795 7.59333 32.3928 8.05333 32.7528 8.64C33.1261 9.22667 33.3195 9.89333 33.3328 10.64H31.5728C31.5728 10.2533 31.4728 9.87333 31.2728 9.5C31.0728 9.11333 30.7661 8.8 30.3528 8.56C29.9528 8.32 29.4461 8.2 28.8328 8.2C28.0728 8.18667 27.4461 8.38 26.9528 8.78C26.4728 9.18 26.2328 9.73333 26.2328 10.44C26.2328 11.04 26.3995 11.5 26.7328 11.82C27.0795 12.14 27.5595 12.4067 28.1728 12.62C28.7861 12.82 29.4928 13.0533 30.2928 13.32C30.9595 13.56 31.5595 13.84 32.0928 14.16C32.6261 14.48 33.0395 14.8933 33.3328 15.4C33.6395 15.9067 33.7928 16.5533 33.7928 17.34C33.7928 18.0067 33.6195 18.64 33.2728 19.24C32.9261 19.8267 32.3995 20.3067 31.6928 20.68C30.9995 21.0533 30.1261 21.24 29.0728 21.24ZM37.0753 25.4V11.08H38.5953L38.7553 12.72C39.0753 12.24 39.5286 11.8067 40.1153 11.42C40.7153 11.0333 41.4753 10.84 42.3953 10.84C43.382 10.84 44.242 11.0667 44.9753 11.52C45.7086 11.9733 46.2753 12.5933 46.6753 13.38C47.0886 14.1667 47.2953 15.06 47.2953 16.06C47.2953 17.06 47.0886 17.9533 46.6753 18.74C46.2753 19.5133 45.702 20.1267 44.9553 20.58C44.222 21.02 43.362 21.24 42.3753 21.24C41.562 21.24 40.8353 21.0733 40.1953 20.74C39.5686 20.4067 39.0886 19.94 38.7553 19.34V25.4H37.0753ZM42.1953 19.78C42.862 19.78 43.4486 19.6267 43.9553 19.32C44.462 19 44.862 18.56 45.1553 18C45.4486 17.44 45.5953 16.7867 45.5953 16.04C45.5953 15.2933 45.4486 14.64 45.1553 14.08C44.862 13.52 44.462 13.0867 43.9553 12.78C43.4486 12.46 42.862 12.3 42.1953 12.3C41.5286 12.3 40.942 12.46 40.4353 12.78C39.9286 13.0867 39.5286 13.52 39.2353 14.08C38.942 14.64 38.7953 15.2933 38.7953 16.04C38.7953 16.7867 38.942 17.44 39.2353 18C39.5286 18.56 39.9286 19 40.4353 19.32C40.942 19.6267 41.5286 19.78 42.1953 19.78ZM53.9339 21.24C53.1072 21.24 52.4206 21.1 51.8739 20.82C51.3272 20.54 50.9206 20.1667 50.6539 19.7C50.3872 19.2333 50.2539 18.7267 50.2539 18.18C50.2539 17.1667 50.6406 16.3867 51.4139 15.84C52.1872 15.2933 53.2406 15.02 54.5739 15.02H57.2539V14.9C57.2539 14.0333 57.0272 13.38 56.5739 12.94C56.1206 12.4867 55.5139 12.26 54.7539 12.26C54.1006 12.26 53.5339 12.4267 53.0539 12.76C52.5872 13.08 52.2939 13.5533 52.1739 14.18H50.4539C50.5206 13.46 50.7606 12.8533 51.1739 12.36C51.6006 11.8667 52.1272 11.4933 52.7539 11.24C53.3806 10.9733 54.0472 10.84 54.7539 10.84C56.1406 10.84 57.1806 11.2133 57.8739 11.96C58.5806 12.6933 58.9339 13.6733 58.9339 14.9V21H57.4339L57.3339 19.22C57.0539 19.78 56.6406 20.26 56.0939 20.66C55.5606 21.0467 54.8406 21.24 53.9339 21.24ZM54.1939 19.82C54.8339 19.82 55.3806 19.6533 55.8339 19.32C56.3006 18.9867 56.6539 18.5533 56.8939 18.02C57.1339 17.4867 57.2539 16.9267 57.2539 16.34V16.32H54.7139C53.7272 16.32 53.0272 16.4933 52.6139 16.84C52.2139 17.1733 52.0139 17.5933 52.0139 18.1C52.0139 18.62 52.2006 19.04 52.5739 19.36C52.9606 19.6667 53.5006 19.82 54.1939 19.82ZM67.0142 21.24C66.0676 21.24 65.2142 21.0267 64.4542 20.6C63.7076 20.16 63.1142 19.5533 62.6742 18.78C62.2476 17.9933 62.0342 17.08 62.0342 16.04C62.0342 15 62.2476 14.0933 62.6742 13.32C63.1142 12.5333 63.7076 11.9267 64.4542 11.5C65.2142 11.06 66.0676 10.84 67.0142 10.84C68.1876 10.84 69.1742 11.1467 69.9742 11.76C70.7876 12.3733 71.3009 13.1933 71.5142 14.22H69.7942C69.6609 13.6067 69.3342 13.1333 68.8142 12.8C68.2942 12.4533 67.6876 12.28 66.9942 12.28C66.4342 12.28 65.9076 12.42 65.4142 12.7C64.9209 12.98 64.5209 13.4 64.2142 13.96C63.9076 14.52 63.7542 15.2133 63.7542 16.04C63.7542 16.8667 63.9076 17.56 64.2142 18.12C64.5209 18.68 64.9209 19.1067 65.4142 19.4C65.9076 19.68 66.4342 19.82 66.9942 19.82C67.6876 19.82 68.2942 19.6533 68.8142 19.32C69.3342 18.9733 69.6609 18.4867 69.7942 17.86H71.5142C71.3142 18.86 70.8076 19.6733 69.9942 20.3C69.1809 20.9267 68.1876 21.24 67.0142 21.24ZM79.3205 21.24C78.3738 21.24 77.5338 21.0267 76.8005 20.6C76.0671 20.16 75.4871 19.5533 75.0605 18.78C74.6471 18.0067 74.4405 17.0933 74.4405 16.04C74.4405 15 74.6471 14.0933 75.0605 13.32C75.4738 12.5333 76.0471 11.9267 76.7805 11.5C77.5271 11.06 78.3871 10.84 79.3605 10.84C80.3205 10.84 81.1471 11.06 81.8405 11.5C82.5471 11.9267 83.0871 12.4933 83.4605 13.2C83.8338 13.9067 84.0205 14.6667 84.0205 15.48C84.0205 15.6267 84.0138 15.7733 84.0005 15.92C84.0005 16.0667 84.0005 16.2333 84.0005 16.42H76.1005C76.1405 17.18 76.3138 17.8133 76.6205 18.32C76.9405 18.8133 77.3338 19.1867 77.8005 19.44C78.2805 19.6933 78.7871 19.82 79.3205 19.82C80.0138 19.82 80.5938 19.66 81.0605 19.34C81.5271 19.02 81.8671 18.5867 82.0805 18.04H83.7405C83.4738 18.96 82.9605 19.7267 82.2005 20.34C81.4538 20.94 80.4938 21.24 79.3205 21.24ZM79.3205 12.26C78.5205 12.26 77.8071 12.5067 77.1805 13C76.5671 13.48 76.2138 14.1867 76.1205 15.12H82.3605C82.3205 14.2267 82.0138 13.5267 81.4405 13.02C80.8671 12.5133 80.1605 12.26 79.3205 12.26ZM91.0472 21.24C89.8605 21.24 88.8739 20.94 88.0872 20.34C87.3005 19.74 86.8405 18.9267 86.7072 17.9H88.4272C88.5339 18.42 88.8072 18.8733 89.2472 19.26C89.7005 19.6333 90.3072 19.82 91.0672 19.82C91.7739 19.82 92.2939 19.6733 92.6272 19.38C92.9605 19.0733 93.1272 18.7133 93.1272 18.3C93.1272 17.7 92.9072 17.3 92.4672 17.1C92.0405 16.9 91.4339 16.72 90.6472 16.56C90.1139 16.4533 89.5805 16.3 89.0472 16.1C88.5139 15.9 88.0672 15.62 87.7072 15.26C87.3472 14.8867 87.1672 14.4 87.1672 13.8C87.1672 12.9333 87.4872 12.2267 88.1272 11.68C88.7805 11.12 89.6605 10.84 90.7672 10.84C91.8205 10.84 92.6805 11.1067 93.3472 11.64C94.0272 12.16 94.4205 12.9067 94.5272 13.88H92.8672C92.8005 13.3733 92.5805 12.98 92.2072 12.7C91.8472 12.4067 91.3605 12.26 90.7472 12.26C90.1472 12.26 89.6805 12.3867 89.3472 12.64C89.0272 12.8933 88.8672 13.2267 88.8672 13.64C88.8672 14.04 89.0739 14.3533 89.4872 14.58C89.9139 14.8067 90.4872 15 91.2072 15.16C91.8205 15.2933 92.4005 15.46 92.9472 15.66C93.5072 15.8467 93.9605 16.1333 94.3072 16.52C94.6672 16.8933 94.8472 17.44 94.8472 18.16C94.8605 19.0533 94.5205 19.7933 93.8272 20.38C93.1472 20.9533 92.2205 21.24 91.0472 21.24Z" fill="black"/>
<path d="M0 45H120" stroke="url(#paint0_linear_1_1484)" stroke-width="2"/>
<defs>
<linearGradient id="paint0_linear_1_1484" x1="-2.35294" y1="45.5001" x2="119.666" y2="45.0481" gradientUnits="userSpaceOnUse">
<stop stop-color="white" stop-opacity="0"/>
<stop offset="0.510417" stop-color="#1254FF"/>
<stop offset="1" stop-color="white" stop-opacity="0"/>
</linearGradient>
</defs>
</svg>
