<svg width="120" height="46" viewBox="0 0 120 46" fill="none" xmlns="http://www.w3.org/2000/svg">
<path d="M15.9116 21V7H24.4316V8.38H17.5916V13.3H23.4116V14.66H17.5916V21H15.9116ZM30.1116 21.24C29.285 21.24 28.5983 21.1 28.0516 20.82C27.505 20.54 27.0983 20.1667 26.8316 19.7C26.565 19.2333 26.4316 18.7267 26.4316 18.18C26.4316 17.1667 26.8183 16.3867 27.5916 15.84C28.365 15.2933 29.4183 15.02 30.7516 15.02H33.4316V14.9C33.4316 14.0333 33.205 13.38 32.7516 12.94C32.2983 12.4867 31.6916 12.26 30.9316 12.26C30.2783 12.26 29.7116 12.4267 29.2316 12.76C28.765 13.08 28.4716 13.5533 28.3516 14.18H26.6316C26.6983 13.46 26.9383 12.8533 27.3516 12.36C27.7783 11.8667 28.305 11.4933 28.9316 11.24C29.5583 10.9733 30.225 10.84 30.9316 10.84C32.3183 10.84 33.3583 11.2133 34.0516 11.96C34.7583 12.6933 35.1116 13.6733 35.1116 14.9V21H33.6116L33.5116 19.22C33.2316 19.78 32.8183 20.26 32.2716 20.66C31.7383 21.0467 31.0183 21.24 30.1116 21.24ZM30.3716 19.82C31.0116 19.82 31.5583 19.6533 32.0116 19.32C32.4783 18.9867 32.8316 18.5533 33.0716 18.02C33.3116 17.4867 33.4316 16.9267 33.4316 16.34V16.32H30.8916C29.905 16.32 29.205 16.4933 28.7916 16.84C28.3916 17.1733 28.1916 17.5933 28.1916 18.1C28.1916 18.62 28.3783 19.04 28.7516 19.36C29.1383 19.6667 29.6783 19.82 30.3716 19.82ZM43.192 21.24C42.2453 21.24 41.392 21.0267 40.632 20.6C39.8853 20.16 39.292 19.5533 38.852 18.78C38.4253 17.9933 38.212 17.08 38.212 16.04C38.212 15 38.4253 14.0933 38.852 13.32C39.292 12.5333 39.8853 11.9267 40.632 11.5C41.392 11.06 42.2453 10.84 43.192 10.84C44.3653 10.84 45.352 11.1467 46.152 11.76C46.9653 12.3733 47.4786 13.1933 47.692 14.22H45.972C45.8386 13.6067 45.512 13.1333 44.992 12.8C44.472 12.4533 43.8653 12.28 43.172 12.28C42.612 12.28 42.0853 12.42 41.592 12.7C41.0986 12.98 40.6986 13.4 40.392 13.96C40.0853 14.52 39.932 15.2133 39.932 16.04C39.932 16.8667 40.0853 17.56 40.392 18.12C40.6986 18.68 41.0986 19.1067 41.592 19.4C42.0853 19.68 42.612 19.82 43.172 19.82C43.8653 19.82 44.472 19.6533 44.992 19.32C45.512 18.9733 45.8386 18.4867 45.972 17.86H47.692C47.492 18.86 46.9853 19.6733 46.172 20.3C45.3586 20.9267 44.3653 21.24 43.192 21.24ZM52.0582 8.88C51.7249 8.88 51.4449 8.77333 51.2182 8.56C51.0049 8.33333 50.8982 8.05333 50.8982 7.72C50.8982 7.4 51.0049 7.13333 51.2182 6.92C51.4449 6.70667 51.7249 6.6 52.0582 6.6C52.3782 6.6 52.6515 6.70667 52.8782 6.92C53.1049 7.13333 53.2182 7.4 53.2182 7.72C53.2182 8.05333 53.1049 8.33333 52.8782 8.56C52.6515 8.77333 52.3782 8.88 52.0582 8.88ZM51.2182 21V11.08H52.8982V21H51.2182ZM56.8234 21V6.6H58.5034V21H56.8234ZM63.277 8.88C62.9436 8.88 62.6636 8.77333 62.437 8.56C62.2236 8.33333 62.117 8.05333 62.117 7.72C62.117 7.4 62.2236 7.13333 62.437 6.92C62.6636 6.70667 62.9436 6.6 63.277 6.6C63.597 6.6 63.8703 6.70667 64.097 6.92C64.3236 7.13333 64.437 7.4 64.437 7.72C64.437 8.05333 64.3236 8.33333 64.097 8.56C63.8703 8.77333 63.597 8.88 63.277 8.88ZM62.437 21V11.08H64.117V21H62.437ZM71.9621 21C71.0554 21 70.3421 20.78 69.8221 20.34C69.3021 19.9 69.0421 19.1067 69.0421 17.96V12.5H67.3221V11.08H69.0421L69.2621 8.7H70.7221V11.08H73.6421V12.5H70.7221V17.96C70.7221 18.5867 70.8488 19.0133 71.1021 19.24C71.3554 19.4533 71.8021 19.56 72.4421 19.56H73.4821V21H71.9621ZM77.7965 8.88C77.4632 8.88 77.1832 8.77333 76.9565 8.56C76.7432 8.33333 76.6365 8.05333 76.6365 7.72C76.6365 7.4 76.7432 7.13333 76.9565 6.92C77.1832 6.70667 77.4632 6.6 77.7965 6.6C78.1165 6.6 78.3898 6.70667 78.6165 6.92C78.8432 7.13333 78.9565 7.4 78.9565 7.72C78.9565 8.05333 78.8432 8.33333 78.6165 8.56C78.3898 8.77333 78.1165 8.88 77.7965 8.88ZM76.9565 21V11.08H78.6365V21H76.9565ZM87.0216 21.24C86.075 21.24 85.235 21.0267 84.5016 20.6C83.7683 20.16 83.1883 19.5533 82.7616 18.78C82.3483 18.0067 82.1416 17.0933 82.1416 16.04C82.1416 15 82.3483 14.0933 82.7616 13.32C83.175 12.5333 83.7483 11.9267 84.4816 11.5C85.2283 11.06 86.0883 10.84 87.0616 10.84C88.0216 10.84 88.8483 11.06 89.5416 11.5C90.2483 11.9267 90.7883 12.4933 91.1616 13.2C91.535 13.9067 91.7216 14.6667 91.7216 15.48C91.7216 15.6267 91.715 15.7733 91.7016 15.92C91.7016 16.0667 91.7016 16.2333 91.7016 16.42H83.8016C83.8416 17.18 84.015 17.8133 84.3216 18.32C84.6416 18.8133 85.035 19.1867 85.5016 19.44C85.9816 19.6933 86.4883 19.82 87.0216 19.82C87.715 19.82 88.295 19.66 88.7616 19.34C89.2283 19.02 89.5683 18.5867 89.7816 18.04H91.4416C91.175 18.96 90.6616 19.7267 89.9016 20.34C89.155 20.94 88.195 21.24 87.0216 21.24ZM87.0216 12.26C86.2216 12.26 85.5083 12.5067 84.8816 13C84.2683 13.48 83.915 14.1867 83.8216 15.12H90.0616C90.0216 14.2267 89.715 13.5267 89.1416 13.02C88.5683 12.5133 87.8616 12.26 87.0216 12.26ZM98.7484 21.24C97.5617 21.24 96.575 20.94 95.7884 20.34C95.0017 19.74 94.5417 18.9267 94.4084 17.9H96.1284C96.235 18.42 96.5084 18.8733 96.9484 19.26C97.4017 19.6333 98.0084 19.82 98.7684 19.82C99.475 19.82 99.995 19.6733 100.328 19.38C100.662 19.0733 100.828 18.7133 100.828 18.3C100.828 17.7 100.608 17.3 100.168 17.1C99.7417 16.9 99.135 16.72 98.3484 16.56C97.815 16.4533 97.2817 16.3 96.7484 16.1C96.215 15.9 95.7684 15.62 95.4084 15.26C95.0484 14.8867 94.8684 14.4 94.8684 13.8C94.8684 12.9333 95.1884 12.2267 95.8284 11.68C96.4817 11.12 97.3617 10.84 98.4684 10.84C99.5217 10.84 100.382 11.1067 101.048 11.64C101.728 12.16 102.122 12.9067 102.228 13.88H100.568C100.502 13.3733 100.282 12.98 99.9084 12.7C99.5484 12.4067 99.0617 12.26 98.4484 12.26C97.8484 12.26 97.3817 12.3867 97.0484 12.64C96.7284 12.8933 96.5684 13.2267 96.5684 13.64C96.5684 14.04 96.775 14.3533 97.1884 14.58C97.615 14.8067 98.1884 15 98.9084 15.16C99.5217 15.2933 100.102 15.46 100.648 15.66C101.208 15.8467 101.662 16.1333 102.008 16.52C102.368 16.8933 102.548 17.44 102.548 18.16C102.562 19.0533 102.222 19.7933 101.528 20.38C100.848 20.9533 99.9217 21.24 98.7484 21.24Z" fill="black"/>
<path d="M0 45H120" stroke="url(#paint0_linear_1_1432)" stroke-width="2"/>
<defs>
<linearGradient id="paint0_linear_1_1432" x1="-2.35294" y1="45.5001" x2="119.666" y2="45.0481" gradientUnits="userSpaceOnUse">
<stop stop-color="white" stop-opacity="0"/>
<stop offset="0.510417" stop-color="#FFB21E"/>
<stop offset="1" stop-color="white" stop-opacity="0"/>
</linearGradient>
</defs>
</svg>
