<svg width="183" height="35" viewBox="0 0 183 35" fill="none" xmlns="http://www.w3.org/2000/svg">
<path d="M4.14 19.216C3 19.216 2.106 18.898 1.458 18.262C0.81 17.626 0.486 16.744 0.486 15.616H2.016C2.016 16.252 2.172 16.786 2.484 17.218C2.796 17.65 3.342 17.866 4.122 17.866C4.878 17.866 5.4 17.656 5.688 17.236C5.988 16.816 6.138 16.294 6.138 15.67V6.4H7.65V15.67C7.65 16.786 7.338 17.656 6.714 18.28C6.102 18.904 5.244 19.216 4.14 19.216ZM14.1944 19.216C13.4504 19.216 12.8324 19.09 12.3404 18.838C11.8484 18.586 11.4824 18.25 11.2424 17.83C11.0024 17.41 10.8824 16.954 10.8824 16.462C10.8824 15.55 11.2304 14.848 11.9264 14.356C12.6224 13.864 13.5704 13.618 14.7704 13.618H17.1824V13.51C17.1824 12.73 16.9784 12.142 16.5704 11.746C16.1624 11.338 15.6164 11.134 14.9324 11.134C14.3444 11.134 13.8344 11.284 13.4024 11.584C12.9824 11.872 12.7184 12.298 12.6104 12.862H11.0624C11.1224 12.214 11.3384 11.668 11.7104 11.224C12.0944 10.78 12.5684 10.444 13.1324 10.216C13.6964 9.976 14.2964 9.856 14.9324 9.856C16.1804 9.856 17.1164 10.192 17.7404 10.864C18.3764 11.524 18.6944 12.406 18.6944 13.51V19H17.3444L17.2544 17.398C17.0024 17.902 16.6304 18.334 16.1384 18.694C15.6584 19.042 15.0104 19.216 14.1944 19.216ZM14.4284 17.938C15.0044 17.938 15.4964 17.788 15.9044 17.488C16.3244 17.188 16.6424 16.798 16.8584 16.318C17.0744 15.838 17.1824 15.334 17.1824 14.806V14.788H14.8964C14.0084 14.788 13.3784 14.944 13.0064 15.256C12.6464 15.556 12.4664 15.934 12.4664 16.39C12.4664 16.858 12.6344 17.236 12.9704 17.524C13.3184 17.8 13.8044 17.938 14.4284 17.938ZM21.9627 19V6.04H23.4747V13.834L27.1287 10.072H28.9827L25.0227 14.104L29.4867 19H27.5607L23.4747 14.374V19H21.9627ZM34.9327 19.216C34.1887 19.216 33.5707 19.09 33.0787 18.838C32.5867 18.586 32.2207 18.25 31.9807 17.83C31.7407 17.41 31.6207 16.954 31.6207 16.462C31.6207 15.55 31.9687 14.848 32.6647 14.356C33.3607 13.864 34.3087 13.618 35.5087 13.618H37.9207V13.51C37.9207 12.73 37.7167 12.142 37.3087 11.746C36.9007 11.338 36.3547 11.134 35.6707 11.134C35.0827 11.134 34.5727 11.284 34.1407 11.584C33.7207 11.872 33.4567 12.298 33.3487 12.862H31.8007C31.8607 12.214 32.0767 11.668 32.4487 11.224C32.8327 10.78 33.3067 10.444 33.8707 10.216C34.4347 9.976 35.0347 9.856 35.6707 9.856C36.9187 9.856 37.8547 10.192 38.4787 10.864C39.1147 11.524 39.4327 12.406 39.4327 13.51V19H38.0827L37.9927 17.398C37.7407 17.902 37.3687 18.334 36.8767 18.694C36.3967 19.042 35.7487 19.216 34.9327 19.216ZM35.1667 17.938C35.7427 17.938 36.2347 17.788 36.6427 17.488C37.0627 17.188 37.3807 16.798 37.5967 16.318C37.8127 15.838 37.9207 15.334 37.9207 14.806V14.788H35.6347C34.7467 14.788 34.1167 14.944 33.7447 15.256C33.3847 15.556 33.2047 15.934 33.2047 16.39C33.2047 16.858 33.3727 17.236 33.7087 17.524C34.0567 17.8 34.5427 17.938 35.1667 17.938ZM42.701 19V10.072H44.069L44.195 11.782C44.471 11.194 44.891 10.726 45.455 10.378C46.019 10.03 46.715 9.856 47.543 9.856V11.44H47.129C46.601 11.44 46.115 11.536 45.671 11.728C45.227 11.908 44.873 12.22 44.609 12.664C44.345 13.108 44.213 13.72 44.213 14.5V19H42.701ZM53.768 19C52.952 19 52.31 18.802 51.842 18.406C51.374 18.01 51.14 17.296 51.14 16.264V11.35H49.592V10.072H51.14L51.338 7.93H52.652V10.072H55.28V11.35H52.652V16.264C52.652 16.828 52.766 17.212 52.994 17.416C53.222 17.608 53.624 17.704 54.2 17.704H55.136V19H53.768ZM61.171 19.216C60.427 19.216 59.809 19.09 59.317 18.838C58.825 18.586 58.459 18.25 58.219 17.83C57.979 17.41 57.859 16.954 57.859 16.462C57.859 15.55 58.207 14.848 58.903 14.356C59.599 13.864 60.547 13.618 61.747 13.618H64.159V13.51C64.159 12.73 63.955 12.142 63.547 11.746C63.139 11.338 62.593 11.134 61.909 11.134C61.321 11.134 60.811 11.284 60.379 11.584C59.959 11.872 59.695 12.298 59.587 12.862H58.039C58.099 12.214 58.315 11.668 58.687 11.224C59.071 10.78 59.545 10.444 60.109 10.216C60.673 9.976 61.273 9.856 61.909 9.856C63.157 9.856 64.093 10.192 64.717 10.864C65.353 11.524 65.671 12.406 65.671 13.51V19H64.321L64.231 17.398C63.979 17.902 63.607 18.334 63.115 18.694C62.635 19.042 61.987 19.216 61.171 19.216ZM61.405 17.938C61.981 17.938 62.473 17.788 62.881 17.488C63.301 17.188 63.619 16.798 63.835 16.318C64.051 15.838 64.159 15.334 64.159 14.806V14.788H61.873C60.985 14.788 60.355 14.944 59.983 15.256C59.623 15.556 59.443 15.934 59.443 16.39C59.443 16.858 59.611 17.236 59.947 17.524C60.295 17.8 60.781 17.938 61.405 17.938ZM67.7333 21.142L68.7773 17.164H70.3433L68.7773 21.142H67.7333ZM78.9922 19V6.4H80.5042V19H78.9922ZM84.0858 19V10.072H85.4538L85.5438 11.674C85.8318 11.11 86.2458 10.666 86.7858 10.342C87.3258 10.018 87.9378 9.856 88.6218 9.856C89.6778 9.856 90.5178 10.18 91.1418 10.828C91.7778 11.464 92.0957 12.448 92.0957 13.78V19H90.5838V13.942C90.5838 12.082 89.8158 11.152 88.2798 11.152C87.5118 11.152 86.8698 11.434 86.3538 11.998C85.8498 12.55 85.5978 13.342 85.5978 14.374V19H84.0858ZM99.4365 19.216C98.5485 19.216 97.7685 19.012 97.0965 18.604C96.4365 18.196 95.9205 17.638 95.5485 16.93C95.1885 16.222 95.0085 15.418 95.0085 14.518C95.0085 13.618 95.1945 12.82 95.5665 12.124C95.9385 11.416 96.4545 10.864 97.1145 10.468C97.7745 10.06 98.5545 9.856 99.4545 9.856C100.187 9.856 100.835 10.006 101.399 10.306C101.963 10.606 102.401 11.026 102.713 11.566V6.04H104.225V19H102.857L102.713 17.524C102.425 17.956 102.011 18.346 101.471 18.694C100.931 19.042 100.253 19.216 99.4365 19.216ZM99.5985 17.902C100.199 17.902 100.727 17.764 101.183 17.488C101.651 17.2 102.011 16.804 102.263 16.3C102.527 15.796 102.659 15.208 102.659 14.536C102.659 13.864 102.527 13.276 102.263 12.772C102.011 12.268 101.651 11.878 101.183 11.602C100.727 11.314 100.199 11.17 99.5985 11.17C99.0105 11.17 98.4825 11.314 98.0145 11.602C97.5585 11.878 97.1985 12.268 96.9345 12.772C96.6825 13.276 96.5565 13.864 96.5565 14.536C96.5565 15.208 96.6825 15.796 96.9345 16.3C97.1985 16.804 97.5585 17.2 98.0145 17.488C98.4825 17.764 99.0105 17.902 99.5985 17.902ZM111.757 19.216C110.917 19.216 110.161 19.024 109.489 18.64C108.817 18.256 108.283 17.716 107.887 17.02C107.503 16.312 107.311 15.484 107.311 14.536C107.311 13.588 107.509 12.766 107.905 12.07C108.301 11.362 108.835 10.816 109.507 10.432C110.191 10.048 110.953 9.856 111.793 9.856C112.633 9.856 113.389 10.048 114.061 10.432C114.733 10.816 115.261 11.362 115.645 12.07C116.041 12.766 116.239 13.588 116.239 14.536C116.239 15.484 116.041 16.312 115.645 17.02C115.249 17.716 114.709 18.256 114.025 18.64C113.353 19.024 112.597 19.216 111.757 19.216ZM111.757 17.92C112.273 17.92 112.753 17.794 113.197 17.542C113.641 17.29 114.001 16.912 114.277 16.408C114.553 15.904 114.691 15.28 114.691 14.536C114.691 13.792 114.553 13.168 114.277 12.664C114.013 12.16 113.659 11.782 113.215 11.53C112.771 11.278 112.297 11.152 111.793 11.152C111.277 11.152 110.797 11.278 110.353 11.53C109.909 11.782 109.549 12.16 109.273 12.664C108.997 13.168 108.859 13.792 108.859 14.536C108.859 15.28 108.997 15.904 109.273 16.408C109.549 16.912 109.903 17.29 110.335 17.542C110.779 17.794 111.253 17.92 111.757 17.92ZM119.342 19V10.072H120.71L120.8 11.674C121.088 11.11 121.502 10.666 122.042 10.342C122.582 10.018 123.194 9.856 123.878 9.856C124.934 9.856 125.774 10.18 126.398 10.828C127.034 11.464 127.352 12.448 127.352 13.78V19H125.84V13.942C125.84 12.082 125.072 11.152 123.536 11.152C122.768 11.152 122.126 11.434 121.61 11.998C121.106 12.55 120.854 13.342 120.854 14.374V19H119.342ZM134.656 19.216C133.804 19.216 133.048 19.024 132.388 18.64C131.728 18.244 131.206 17.698 130.822 17.002C130.45 16.306 130.264 15.484 130.264 14.536C130.264 13.6 130.45 12.784 130.822 12.088C131.194 11.38 131.71 10.834 132.37 10.45C133.042 10.054 133.816 9.856 134.692 9.856C135.556 9.856 136.3 10.054 136.924 10.45C137.56 10.834 138.046 11.344 138.382 11.98C138.718 12.616 138.886 13.3 138.886 14.032C138.886 14.164 138.88 14.296 138.868 14.428C138.868 14.56 138.868 14.71 138.868 14.878H131.758C131.794 15.562 131.95 16.132 132.226 16.588C132.514 17.032 132.868 17.368 133.288 17.596C133.72 17.824 134.176 17.938 134.656 17.938C135.28 17.938 135.802 17.794 136.222 17.506C136.642 17.218 136.948 16.828 137.14 16.336H138.634C138.394 17.164 137.932 17.854 137.248 18.406C136.576 18.946 135.712 19.216 134.656 19.216ZM134.656 11.134C133.936 11.134 133.294 11.356 132.73 11.8C132.178 12.232 131.86 12.868 131.776 13.708H137.392C137.356 12.904 137.08 12.274 136.564 11.818C136.048 11.362 135.412 11.134 134.656 11.134ZM145.31 19.216C144.242 19.216 143.354 18.946 142.646 18.406C141.938 17.866 141.524 17.134 141.404 16.21H142.952C143.048 16.678 143.294 17.086 143.69 17.434C144.098 17.77 144.644 17.938 145.328 17.938C145.964 17.938 146.432 17.806 146.732 17.542C147.032 17.266 147.182 16.942 147.182 16.57C147.182 16.03 146.984 15.67 146.588 15.49C146.204 15.31 145.658 15.148 144.95 15.004C144.47 14.908 143.99 14.77 143.51 14.59C143.03 14.41 142.628 14.158 142.304 13.834C141.98 13.498 141.818 13.06 141.818 12.52C141.818 11.74 142.106 11.104 142.682 10.612C143.27 10.108 144.062 9.856 145.058 9.856C146.006 9.856 146.78 10.096 147.38 10.576C147.992 11.044 148.346 11.716 148.442 12.592H146.948C146.888 12.136 146.69 11.782 146.354 11.53C146.03 11.266 145.592 11.134 145.04 11.134C144.5 11.134 144.08 11.248 143.78 11.476C143.492 11.704 143.348 12.004 143.348 12.376C143.348 12.736 143.534 13.018 143.906 13.222C144.29 13.426 144.806 13.6 145.454 13.744C146.006 13.864 146.528 14.014 147.02 14.194C147.524 14.362 147.932 14.62 148.244 14.968C148.568 15.304 148.73 15.796 148.73 16.444C148.742 17.248 148.436 17.914 147.812 18.442C147.2 18.958 146.366 19.216 145.31 19.216ZM152.808 8.092C152.508 8.092 152.256 7.996 152.052 7.804C151.86 7.6 151.764 7.348 151.764 7.048C151.764 6.76 151.86 6.52 152.052 6.328C152.256 6.136 152.508 6.04 152.808 6.04C153.096 6.04 153.342 6.136 153.546 6.328C153.75 6.52 153.852 6.76 153.852 7.048C153.852 7.348 153.75 7.6 153.546 7.804C153.342 7.996 153.096 8.092 152.808 8.092ZM152.052 19V10.072H153.564V19H152.052ZM160.167 19.216C159.423 19.216 158.805 19.09 158.313 18.838C157.821 18.586 157.455 18.25 157.215 17.83C156.975 17.41 156.855 16.954 156.855 16.462C156.855 15.55 157.203 14.848 157.899 14.356C158.595 13.864 159.543 13.618 160.743 13.618H163.155V13.51C163.155 12.73 162.951 12.142 162.543 11.746C162.135 11.338 161.589 11.134 160.905 11.134C160.317 11.134 159.807 11.284 159.375 11.584C158.955 11.872 158.691 12.298 158.583 12.862H157.035C157.095 12.214 157.311 11.668 157.683 11.224C158.067 10.78 158.541 10.444 159.105 10.216C159.669 9.976 160.269 9.856 160.905 9.856C162.153 9.856 163.089 10.192 163.713 10.864C164.349 11.524 164.667 12.406 164.667 13.51V19H163.317L163.227 17.398C162.975 17.902 162.603 18.334 162.111 18.694C161.631 19.042 160.983 19.216 160.167 19.216ZM160.401 17.938C160.977 17.938 161.469 17.788 161.877 17.488C162.297 17.188 162.615 16.798 162.831 16.318C163.047 15.838 163.155 15.334 163.155 14.806V14.788H160.869C159.981 14.788 159.351 14.944 158.979 15.256C158.619 15.556 158.439 15.934 158.439 16.39C158.439 16.858 158.607 17.236 158.943 17.524C159.291 17.8 159.777 17.938 160.401 17.938Z" fill="black"/>
<path d="M0 34H180" stroke="url(#paint0_linear_1_1375)" stroke-width="2"/>
<defs>
<linearGradient id="paint0_linear_1_1375" x1="-3.52941" y1="34.5001" x2="179.496" y2="33.483" gradientUnits="userSpaceOnUse">
<stop stop-color="#FFB21E"/>
<stop offset="1" stop-color="white" stop-opacity="0"/>
</linearGradient>
</defs>
</svg>
