<svg width="120" height="38" viewBox="0 0 120 38" fill="none" xmlns="http://www.w3.org/2000/svg">
<path d="M0.6 21L5.76 7H7.54L12.68 21H10.9L9.62 17.4H3.66L2.36 21H0.6ZM4.16 16.04H9.12L6.64 9.12L4.16 16.04ZM20.9613 21.24C20.1479 21.24 19.4213 21.0733 18.7813 20.74C18.1546 20.4067 17.6746 19.94 17.3413 19.34L17.1813 21H15.6613V6.6H17.3413V12.72C17.6613 12.24 18.1146 11.8067 18.7013 11.42C19.3013 11.0333 20.0613 10.84 20.9813 10.84C21.9679 10.84 22.8279 11.0667 23.5613 11.52C24.2946 11.9733 24.8613 12.5933 25.2613 13.38C25.6746 14.1667 25.8813 15.06 25.8813 16.06C25.8813 17.06 25.6746 17.9533 25.2613 18.74C24.8613 19.5133 24.2879 20.1267 23.5413 20.58C22.8079 21.02 21.9479 21.24 20.9613 21.24ZM20.7813 19.78C21.4479 19.78 22.0346 19.6267 22.5413 19.32C23.0479 19 23.4479 18.56 23.7413 18C24.0346 17.44 24.1813 16.7867 24.1813 16.04C24.1813 15.2933 24.0346 14.64 23.7413 14.08C23.4479 13.52 23.0479 13.0867 22.5413 12.78C22.0346 12.46 21.4479 12.3 20.7813 12.3C20.1146 12.3 19.5279 12.46 19.0213 12.78C18.5146 13.0867 18.1146 13.52 17.8213 14.08C17.5279 14.64 17.3813 15.2933 17.3813 16.04C17.3813 16.7867 17.5279 17.44 17.8213 18C18.1146 18.56 18.5146 19 19.0213 19.32C19.5279 19.6267 20.1146 19.78 20.7813 19.78ZM33.7398 21.24C32.8065 21.24 31.9665 21.0267 31.2198 20.6C30.4732 20.1733 29.8798 19.5733 29.4398 18.8C29.0132 18.0133 28.7998 17.0933 28.7998 16.04C28.7998 14.9867 29.0198 14.0733 29.4598 13.3C29.8998 12.5133 30.4932 11.9067 31.2398 11.48C31.9998 11.0533 32.8465 10.84 33.7798 10.84C34.7132 10.84 35.5532 11.0533 36.2998 11.48C37.0465 11.9067 37.6332 12.5133 38.0598 13.3C38.4998 14.0733 38.7198 14.9867 38.7198 16.04C38.7198 17.0933 38.4998 18.0133 38.0598 18.8C37.6198 19.5733 37.0198 20.1733 36.2598 20.6C35.5132 21.0267 34.6732 21.24 33.7398 21.24ZM33.7398 19.8C34.3132 19.8 34.8465 19.66 35.3398 19.38C35.8332 19.1 36.2332 18.68 36.5398 18.12C36.8465 17.56 36.9998 16.8667 36.9998 16.04C36.9998 15.2133 36.8465 14.52 36.5398 13.96C36.2465 13.4 35.8532 12.98 35.3598 12.7C34.8665 12.42 34.3398 12.28 33.7798 12.28C33.2065 12.28 32.6732 12.42 32.1798 12.7C31.6865 12.98 31.2865 13.4 30.9798 13.96C30.6732 14.52 30.5198 15.2133 30.5198 16.04C30.5198 16.8667 30.6732 17.56 30.9798 18.12C31.2865 18.68 31.6798 19.1 32.1598 19.38C32.6532 19.66 33.1798 19.8 33.7398 19.8ZM45.6758 21.24C44.5024 21.24 43.5691 20.8867 42.8758 20.18C42.1824 19.46 41.8358 18.36 41.8358 16.88V11.08H43.5158V16.7C43.5158 18.7667 44.3624 19.8 46.0558 19.8C46.9224 19.8 47.6358 19.4933 48.1958 18.88C48.7691 18.2533 49.0558 17.3667 49.0558 16.22V11.08H50.7358V21H49.2158L49.0958 19.22C48.7891 19.8467 48.3291 20.34 47.7158 20.7C47.1158 21.06 46.4358 21.24 45.6758 21.24ZM58.4211 21C57.5144 21 56.8011 20.78 56.2811 20.34C55.7611 19.9 55.5011 19.1067 55.5011 17.96V12.5H53.7811V11.08H55.5011L55.7211 8.7H57.1811V11.08H60.1011V12.5H57.1811V17.96C57.1811 18.5867 57.3078 19.0133 57.5611 19.24C57.8144 19.4533 58.2611 19.56 58.9011 19.56H59.9411V21H58.4211Z" fill="black"/>
<path d="M0 37H120" stroke="url(#paint0_linear_1_1277)" stroke-width="2"/>
<defs>
<linearGradient id="paint0_linear_1_1277" x1="-2.35294" y1="37.5001" x2="119.666" y2="37.0481" gradientUnits="userSpaceOnUse">
<stop stop-color="#1254FF"/>
<stop offset="1" stop-color="white" stop-opacity="0"/>
</linearGradient>
</defs>
</svg>
