<svg width="138" height="35" viewBox="0 0 138 35" fill="none" xmlns="http://www.w3.org/2000/svg">
<path d="M17.2 34.92V23.76C16.4533 24.8267 15.48 25.6933 14.28 26.36C13.1067 27 11.6933 27.32 10.04 27.32C8.09333 27.32 6.38667 26.8667 4.92 25.96C3.48 25.0267 2.36 23.7733 1.56 22.2C0.76 20.6267 0.36 18.8933 0.36 17C0.36 15.08 0.76 13.3467 1.56 11.8C2.36 10.2267 3.48 8.98667 4.92 8.08C6.38667 7.14667 8.09333 6.68 10.04 6.68C11.6933 6.68 13.1067 7 14.28 7.64C15.48 8.25333 16.4533 9.10667 17.2 10.2V7H20.2V34.92H17.2ZM10.44 24.6C11.9333 24.6 13.1867 24.2533 14.2 23.56C15.24 22.8667 16.0267 21.9467 16.56 20.8C17.0933 19.6267 17.36 18.36 17.36 17C17.36 15.6133 17.0933 14.3467 16.56 13.2C16.0267 12.0533 15.24 11.1333 14.2 10.44C13.1867 9.74667 11.9333 9.4 10.44 9.4C8.97333 9.4 7.70667 9.74667 6.64 10.44C5.57333 11.1333 4.76 12.0533 4.2 13.2C3.64 14.3467 3.36 15.6133 3.36 17C3.36 18.36 3.64 19.6267 4.2 20.8C4.76 21.9467 5.57333 22.8667 6.64 23.56C7.70667 24.2533 8.97333 24.6 10.44 24.6ZM35.5091 27.32C32.8957 27.32 30.7757 26.9733 29.1491 26.28C27.5224 25.56 26.2957 24.5733 25.4691 23.32C24.6691 22.0667 24.2024 20.6533 24.0691 19.08H27.1891C27.2691 20.36 27.6957 21.4 28.4691 22.2C29.2424 22.9733 30.2557 23.5467 31.5091 23.92C32.7891 24.2933 34.1891 24.48 35.7091 24.48C37.9491 24.48 39.7224 24.0933 41.0291 23.32C42.3357 22.52 42.9891 21.3467 42.9891 19.8C42.9891 18.8667 42.6557 18.12 41.9891 17.56C41.3491 16.9733 40.4824 16.4933 39.3891 16.12C38.3224 15.7467 37.1491 15.4133 35.8691 15.12C34.5891 14.8 33.2957 14.4667 31.9891 14.12C30.7091 13.7733 29.5224 13.3333 28.4291 12.8C27.3624 12.2667 26.4957 11.5867 25.8291 10.76C25.1891 9.90667 24.8691 8.82667 24.8691 7.52C24.8691 5.36 25.6957 3.6 27.3491 2.24C29.0291 0.879999 31.5224 0.199999 34.8291 0.199999C37.1757 0.199999 39.1091 0.559999 40.6291 1.28C42.1491 1.97333 43.2824 2.89333 44.0291 4.04C44.8024 5.18667 45.2291 6.42667 45.3091 7.76H42.2291C42.0691 6.42667 41.4024 5.30667 40.2291 4.4C39.0557 3.46667 37.2557 3 34.8291 3C33.3357 3 32.1224 3.14667 31.1891 3.44C30.2557 3.73333 29.5357 4.12 29.0291 4.6C28.5491 5.05333 28.2157 5.53333 28.0291 6.04C27.8691 6.54667 27.7891 7.02667 27.7891 7.48C27.7891 8.36 28.1091 9.08 28.7491 9.64C29.4157 10.1733 30.2824 10.6267 31.3491 11C32.4424 11.3467 33.6424 11.6667 34.9491 11.96C36.2557 12.2533 37.5491 12.5867 38.8291 12.96C40.1357 13.3067 41.3224 13.76 42.3891 14.32C43.4824 14.8533 44.3491 15.5467 44.9891 16.4C45.6557 17.2533 45.9891 18.3467 45.9891 19.68C45.9891 22.1333 45.0557 24.0267 43.1891 25.36C41.3224 26.6667 38.7624 27.32 35.5091 27.32ZM49.9984 34.92V7H52.9984V10.2C53.7451 9.10667 54.7051 8.25333 55.8784 7.64C57.0784 7 58.5051 6.68 60.1584 6.68C62.1051 6.68 63.7984 7.14667 65.2384 8.08C66.7051 8.98667 67.8384 10.2267 68.6384 11.8C69.4384 13.3467 69.8384 15.08 69.8384 17C69.8384 18.8933 69.4384 20.6267 68.6384 22.2C67.8384 23.7733 66.7051 25.0267 65.2384 25.96C63.7984 26.8667 62.1051 27.32 60.1584 27.32C58.5051 27.32 57.0784 27 55.8784 26.36C54.7051 25.6933 53.7451 24.8267 52.9984 23.76V34.92H49.9984ZM59.7584 24.6C61.2518 24.6 62.5184 24.2533 63.5584 23.56C64.6251 22.8667 65.4384 21.9467 65.9984 20.8C66.5584 19.6267 66.8384 18.36 66.8384 17C66.8384 15.6133 66.5584 14.3467 65.9984 13.2C65.4384 12.0533 64.6251 11.1333 63.5584 10.44C62.5184 9.74667 61.2518 9.4 59.7584 9.4C58.2918 9.4 57.0384 9.74667 55.9984 10.44C54.9584 11.1333 54.1718 12.0533 53.6384 13.2C53.1051 14.3467 52.8384 15.6133 52.8384 17C52.8384 18.36 53.1051 19.6267 53.6384 20.8C54.1718 21.9467 54.9584 22.8667 55.9984 23.56C57.0384 24.2533 58.2918 24.6 59.7584 24.6ZM82.2275 27.32C80.2808 27.32 78.5742 26.8667 77.1075 25.96C75.6675 25.0267 74.5475 23.7733 73.7475 22.2C72.9475 20.6267 72.5475 18.8933 72.5475 17C72.5475 15.08 72.9475 13.3467 73.7475 11.8C74.5475 10.2267 75.6675 8.98667 77.1075 8.08C78.5742 7.14667 80.2808 6.68 82.2275 6.68C83.8808 6.68 85.2942 7 86.4675 7.64C87.6675 8.28 88.6408 9.14667 89.3875 10.24V7H92.3875V27H89.3875V23.8C88.6408 24.8667 87.6675 25.72 86.4675 26.36C85.2942 27 83.8808 27.32 82.2275 27.32ZM82.6275 24.6C84.1208 24.6 85.3742 24.2533 86.3875 23.56C87.4275 22.8667 88.2142 21.9467 88.7475 20.8C89.2808 19.6267 89.5475 18.36 89.5475 17C89.5475 15.6133 89.2808 14.3467 88.7475 13.2C88.2142 12.0533 87.4275 11.1333 86.3875 10.44C85.3742 9.74667 84.1208 9.4 82.6275 9.4C81.1608 9.4 79.8942 9.74667 78.8275 10.44C77.7608 11.1333 76.9475 12.0533 76.3875 13.2C75.8275 14.3467 75.5475 15.6133 75.5475 17C75.5475 18.36 75.8275 19.6267 76.3875 20.8C76.9475 21.9467 77.7608 22.8667 78.8275 23.56C79.8942 24.2533 81.1608 24.6 82.6275 24.6ZM106.177 27.32C104.177 27.32 102.443 26.8667 100.977 25.96C99.5099 25.0267 98.3632 23.7733 97.5366 22.2C96.7366 20.6267 96.3366 18.8933 96.3366 17C96.3366 15.08 96.7366 13.3467 97.5366 11.8C98.3632 10.2267 99.5099 8.98667 100.977 8.08C102.443 7.14667 104.177 6.68 106.177 6.68C108.55 6.68 110.563 7.29333 112.217 8.52C113.897 9.74667 115.03 11.3333 115.617 13.28H112.377C111.923 12.1333 111.19 11.2 110.177 10.48C109.19 9.76 107.99 9.4 106.577 9.4C105.11 9.4 103.83 9.74667 102.737 10.44C101.643 11.1333 100.803 12.0533 100.217 13.2C99.6299 14.3467 99.3366 15.6133 99.3366 17C99.3366 18.36 99.6299 19.6267 100.217 20.8C100.803 21.9467 101.643 22.8667 102.737 23.56C103.83 24.2533 105.11 24.6 106.577 24.6C107.99 24.6 109.19 24.24 110.177 23.52C111.19 22.8 111.923 21.8667 112.377 20.72H115.617C115.03 22.6667 113.897 24.2533 112.217 25.48C110.563 26.7067 108.55 27.32 106.177 27.32ZM128.214 27.32C126.188 27.32 124.414 26.8667 122.894 25.96C121.374 25.0267 120.188 23.7733 119.334 22.2C118.508 20.6267 118.094 18.8933 118.094 17C118.094 15.08 118.494 13.3467 119.294 11.8C120.094 10.2267 121.241 8.98667 122.734 8.08C124.228 7.14667 125.988 6.68 128.014 6.68C130.068 6.68 131.828 7.14667 133.294 8.08C134.788 8.98667 135.934 10.2267 136.734 11.8C137.534 13.3467 137.934 15.08 137.934 17V18.2H121.174C121.334 19.3733 121.708 20.4533 122.294 21.44C122.908 22.4 123.721 23.1733 124.734 23.76C125.748 24.32 126.921 24.6 128.254 24.6C129.668 24.6 130.854 24.2933 131.814 23.68C132.774 23.04 133.521 22.2267 134.054 21.24H137.334C136.641 23.0267 135.534 24.4933 134.014 25.64C132.521 26.76 130.588 27.32 128.214 27.32ZM121.214 15.4H134.814C134.548 13.6933 133.828 12.2667 132.654 11.12C131.481 9.97333 129.934 9.4 128.014 9.4C126.094 9.4 124.548 9.97333 123.374 11.12C122.228 12.2667 121.508 13.6933 121.214 15.4Z" fill="black"/>
</svg>
